<svg width="16" height="16" viewBox="0 0 16 16" fill="none" xmlns="http://www.w3.org/2000/svg">
<mask id="mask0_3050_13146" style="mask-type:alpha" maskUnits="userSpaceOnUse" x="0" y="0" width="16" height="16">
<path d="M7.99999 14.4162C7.58576 14.4162 7.25003 14.0716 7.24996 13.6464L7.24999 8.7512L2.35478 8.75122C1.92965 8.7512 1.58497 8.41543 1.58498 8.00122C1.58499 7.587 1.92968 7.25118 2.35481 7.25119L7.24999 7.2512L7.24999 2.35602C7.24999 1.93087 7.58577 1.58622 7.99998 1.58622C8.4142 1.58622 8.74999 1.93087 8.74999 2.35602L8.74999 7.2512L13.6452 7.25118C14.0704 7.25123 14.415 7.58699 14.415 8.00121C14.415 8.41543 14.0703 8.75119 13.6452 8.75121L8.74999 8.7512L8.75002 13.6464C8.74994 14.0716 8.41421 14.4162 7.99999 14.4162Z" fill="#0A111F"/>
</mask>
<g mask="url(#mask0_3050_13146)">
<rect width="16" height="16" rx="3" fill="#006399"/>
</g>
</svg>
