<svg width="20" height="19" viewBox="0 0 20 19" fill="none" xmlns="http://www.w3.org/2000/svg">
<path fill-rule="evenodd" clip-rule="evenodd" d="M2 0H18C19.1046 0 20 0.89268 20 1.99385V2.1649C20 2.6937 19.7893 3.20085 19.4142 3.57477L13.294 9.6762C13.1058 9.8638 13 10.1186 13 10.3844V14.0371C13 14.3048 12.8927 14.5612 12.7021 14.7492L8.5812 18.8125C7.91937 19.2839 7 18.8122 7 18.0013V10.4137C7 10.1488 6.89488 9.8947 6.70771 9.7072L0.58579 3.57477C0.21071 3.20085 0 2.6937 0 2.1649V1.99385C0 0.89268 0.89543 0 2 0ZM18 2H2L8.7071 8.7071C8.8946 8.8946 9 9.149 9 9.4142V15.5L11 13.5V9.4142C11 9.149 11.1054 8.8946 11.2929 8.7071L18 2Z" fill="#006399"/>
</svg>
