<svg width="14" height="14" viewBox="0 0 14 14" fill="none" xmlns="http://www.w3.org/2000/svg">
<path fill-rule="evenodd" clip-rule="evenodd" d="M6 0.75C8.8995 0.75 11.25 3.10051 11.25 6C11.25 7.17955 10.861 8.26824 10.2043 9.14479L13.0289 11.9694C13.3218 12.2623 13.3218 12.7372 13.0289 13.0301C12.736 13.323 12.2612 13.323 11.9683 13.0301L9.14347 10.2053C8.26715 10.8614 7.17896 11.25 6 11.25C3.10051 11.25 0.75 8.8995 0.75 6C0.75 3.10051 3.10051 0.75 6 0.75ZM6 9.75C8.07107 9.75 9.75 8.07107 9.75 6C9.75 3.92893 8.07107 2.25 6 2.25C3.92893 2.25 2.25 3.92893 2.25 6C2.25 8.07107 3.92893 9.75 6 9.75Z" fill="#0A111F" fill-opacity="0.35"/>
</svg>
