<svg width="12" height="14" viewBox="0 0 12 14" fill="none" xmlns="http://www.w3.org/2000/svg">
<path fill-rule="evenodd" clip-rule="evenodd" d="M9.5 13.25C9.9142 13.25 10.25 12.9142 10.25 12.5V4.75H11C11.4142 4.75 11.75 4.41421 11.75 4C11.75 3.58579 11.4142 3.25 11 3.25H8.75V1.5C8.75 1.08579 8.4142 0.75 8 0.75H4C3.58579 0.75 3.25 1.08579 3.25 1.5V3.25H1C0.58579 3.25 0.25 3.58579 0.25 4C0.25 4.41421 0.58579 4.75 1 4.75H1.75V12.5C1.75 12.9142 2.08579 13.25 2.5 13.25H9.5ZM3.25 4.75V11.75H8.75V4.75H3.25ZM7.25 2.25H4.75V3.25H7.25V2.25Z" fill="#0A111F" fill-opacity="0.56"/>
</svg>
